# xmcd
#
# Track frame offsets:
#	150
#	88549
#	105210
#	117108
#	134804
#	147545
#	162266
#	187696
#	204718
#	217466
#	228467
#	232941
#	259472
#	307045
#
# Disc length: 4404 seconds
#
# Revision: 3
# Processed by: cddbd v1.5.2PL0 Copyright (c) Steve Scherf et al.
# Submitted via: EZCDAudioConverter 1.3.4.1
#
DISCID=cf11320e
DTITLE=Pentangle - The Time Has Come 4/4
DYEAR=2007
DGENRE=
TTITLE0=Pentangling
TTITLE1=Sally Go Round The Roses
TTITLE2=Sarabande
TTITLE3=Sally Free And Easy
TTITLE4=Wondrous Love
TTITLE5=Sweet Child
TTITLE6=Willy O' Winsbury
TTITLE7=Rain And Snow
TTITLE8=No Love Is Sorrow
TTITLE9=Wedding Dress
TTITLE10=The Furniture Store
TTITLE11=Christian The Lion
TTITLE12=Reflection
TTITLE13=People On The Highway
EXTD=
EXTT0=
EXTT1=
EXTT2=
EXTT3=
EXTT4=
EXTT5=
EXTT6=
EXTT7=
EXTT8=
EXTT9=
EXTT10=
EXTT11=
EXTT12=
EXTT13=
PLAYORDER=
